<svg width="1070" height="284" viewBox="0 0 1070 284" fill="none" xmlns="http://www.w3.org/2000/svg">
<path d="M80.7636 270.153L87.3964 239.51C94.7943 205.333 68.756 173.052 33.7906 173.052H3.40775C12.9894 215.995 42.0154 251.602 80.7636 270.153Z" fill="url(#paint0_linear_2494_39)"/>
<path d="M94.0889 275.714C109.057 281.078 125.187 284 142 284C209.754 284 266.426 236.543 280.592 173.052H187.904C146.125 173.052 110.003 202.194 101.163 243.031L94.0889 275.714Z" fill="url(#paint1_linear_2494_39)"/>
<path d="M283.009 158.851C283.663 153.321 284 147.693 284 141.987C284 67.4857 226.637 6.38367 153.672 0.446635L133.77 92.3928C126.372 126.57 152.41 158.851 187.376 158.851H283.009Z" fill="url(#paint2_linear_2494_39)"/>
<path d="M139.24 0C62.0895 1.47074 0 64.4772 0 141.987C0 147.693 0.336509 153.321 0.990772 158.851H33.2625C75.0417 158.851 111.164 129.709 120.003 88.8719L139.24 0Z" fill="url(#paint3_linear_2494_39)"/>
<path fill-rule="evenodd" clip-rule="evenodd" d="M622.154 96.1274C620.375 94.0591 618.004 92.0646 615.039 90.1441C612.074 88.2235 608.739 86.5245 605.033 85.0471C601.327 83.422 597.251 82.1662 592.803 81.2798C588.505 80.2456 583.983 79.7285 579.24 79.7285C567.084 79.7285 558.116 82.0185 552.335 86.5983C546.554 91.1782 543.663 97.4571 543.663 105.435C543.663 111.049 545.145 115.481 548.11 118.731C551.075 121.982 555.596 124.641 561.674 126.709C567.9 128.777 575.756 130.92 585.243 133.136C596.213 135.5 605.7 138.38 613.705 141.778C621.71 145.176 627.861 149.756 632.16 155.518C636.459 161.132 638.609 168.667 638.609 178.122C638.609 185.657 637.126 192.231 634.161 197.845C631.345 203.311 627.343 207.891 622.154 211.584C616.966 215.13 610.888 217.789 603.921 219.562C596.954 221.187 589.394 222 581.241 222C573.236 222 565.38 221.187 557.671 219.562C550.111 217.789 542.922 215.278 536.103 212.028C529.284 208.777 522.91 204.715 516.98 199.839L526.542 182.997C528.913 185.509 531.952 188.02 535.658 190.532C539.512 192.896 543.811 195.112 548.555 197.18C553.447 199.248 558.709 200.947 564.342 202.277C569.975 203.459 575.756 204.05 581.686 204.05C592.952 204.05 601.698 202.055 607.924 198.066C614.15 193.93 617.263 187.946 617.263 180.116C617.263 174.207 615.484 169.479 611.926 165.934C608.517 162.388 603.402 159.433 596.583 157.069C589.765 154.705 581.463 152.342 571.68 149.978C561.007 147.319 552.038 144.438 544.775 141.335C537.511 138.085 532.026 133.874 528.321 128.704C524.763 123.533 522.984 116.811 522.984 108.537C522.984 98.4912 525.43 89.9963 530.322 83.0526C535.214 76.109 541.958 70.8643 550.556 67.3186C559.154 63.7729 568.863 62 579.685 62C586.8 62 593.396 62.7387 599.474 64.2161C605.7 65.6934 611.481 67.7618 616.818 70.421C622.154 73.0803 627.046 76.2567 631.493 79.9501L622.154 96.1274ZM728.746 80.8367H783.223V63.1082H654.257V80.8367H708.734V220.449H728.746V80.8367ZM917.582 202.72V220.449H810.407V63.1082H915.581V80.8367H830.419V131.806H904.463V148.427H830.419V202.72H917.582ZM949.484 220.449V63.1082H1017.08C1024.05 63.1082 1030.42 64.5855 1036.2 67.5403C1041.98 70.3473 1047.02 74.1885 1051.32 79.0638C1055.62 83.7914 1058.96 89.1839 1061.33 95.2411C1063.7 101.151 1064.89 107.208 1064.89 113.413C1064.89 120.652 1063.48 127.522 1060.66 134.022C1057.99 140.523 1054.14 146.063 1049.1 150.643C1044.21 155.223 1038.43 158.399 1031.76 160.172L1070 220.449H1047.32L1011.3 163.939H969.496V220.449H949.484ZM969.496 146.211H1017.3C1022.79 146.211 1027.53 144.733 1031.53 141.779C1035.68 138.676 1038.87 134.613 1041.09 129.59C1043.47 124.567 1044.65 119.175 1044.65 113.413C1044.65 107.503 1043.32 102.111 1040.65 97.2356C1037.98 92.2125 1034.5 88.2236 1030.2 85.2688C1025.9 82.3141 1021.16 80.8367 1015.97 80.8367H969.496V146.211ZM441.604 63.1082H424.705L360 220.449H381.346L399.802 174.355H466.063L484.741 220.449H506.087L441.604 63.1082ZM433.155 86.1553L461.616 158.842H403.804L433.155 86.1553Z" fill="white"/>
<defs>
<linearGradient id="paint0_linear_2494_39" x1="167.5" y1="3.67703e-06" x2="111.393" y2="284.373" gradientUnits="userSpaceOnUse">
<stop stop-color="#F4D5B1"/>
<stop offset="1" stop-color="#FFD29F"/>
</linearGradient>
<linearGradient id="paint1_linear_2494_39" x1="167.5" y1="3.67703e-06" x2="111.393" y2="284.373" gradientUnits="userSpaceOnUse">
<stop stop-color="#F4D5B1"/>
<stop offset="1" stop-color="#FFD29F"/>
</linearGradient>
<linearGradient id="paint2_linear_2494_39" x1="167.5" y1="3.67703e-06" x2="111.393" y2="284.373" gradientUnits="userSpaceOnUse">
<stop stop-color="#F4D5B1"/>
<stop offset="1" stop-color="#FFD29F"/>
</linearGradient>
<linearGradient id="paint3_linear_2494_39" x1="167.5" y1="3.67703e-06" x2="111.393" y2="284.373" gradientUnits="userSpaceOnUse">
<stop stop-color="#F4D5B1"/>
<stop offset="1" stop-color="#FFD29F"/>
</linearGradient>
</defs>
</svg>